<?xml version="1.0" standalone="no"?><!DOCTYPE svg PUBLIC "-//W3C//DTD SVG 1.1//EN" "http://www.w3.org/Graphics/SVG/1.1/DTD/svg11.dtd"><svg t="1552538046728" class="icon" style="" viewBox="0 0 1024 1024" version="1.1" xmlns="http://www.w3.org/2000/svg" p-id="2576" xmlns:xlink="http://www.w3.org/1999/xlink" width="200" height="200"><defs><style type="text/css"></style></defs><path d="M510.969019 163.671687C733.005998 163.671687 910.592602 340.629981 910.592602 561.864688c0 221.040279-177.585581 398.062018-399.62256 398.062018-222.036979 0-399.62256-177.021739-399.62256-398.062018C111.346459 340.629981 288.93204 163.671687 510.969019 163.671687M710.715319 681.231309C533.086759 575.026452 533.086759 575.026452 533.086759 575.026452c0-234.396471 0-234.396471 0-234.396471-66.568115 0-66.568115 0-66.568115 0 0 265.360693 0 265.360693 0 265.360693C675.197384 734.419695 675.197384 734.419695 675.197384 734.419695L710.715319 681.231309zM955.044 238.717893C750.698962 66.205864 750.698962 66.205864 750.698962 66.205864c-57.676607 66.350151-57.676607 66.350151-57.676607 66.350151 204.214055 172.685991 204.214055 172.685991 204.214055 172.685991L955.044 238.717893zM124.529713 305.243029c-57.633628-66.525136-57.633628-66.525136-57.633628-66.525136C271.282055 70.651107 271.282055 70.651107 271.282055 70.651107c57.634652 66.351174 57.634652 66.351174 57.634652 66.351174L124.529713 305.243029z" p-id="2577"></path></svg>