<?xml version="1.0" standalone="no"?><!DOCTYPE svg PUBLIC "-//W3C//DTD SVG 1.1//EN" "http://www.w3.org/Graphics/SVG/1.1/DTD/svg11.dtd"><svg t="1552544167687" class="icon" style="" viewBox="0 0 1024 1024" version="1.1" xmlns="http://www.w3.org/2000/svg" p-id="3881" xmlns:xlink="http://www.w3.org/1999/xlink" width="200" height="200"><defs><style type="text/css"></style></defs><path d="M328.021333 150.741333l19.370667 37.973334a362.581333 362.581333 0 0 0-197.888 334.848l-42.666667 1.322666a405.248 405.248 0 0 1 221.141334-374.186666z m352.725334 0a405.248 405.248 0 0 1 221.098666 374.186667l-42.624-1.365333A362.581333 362.581333 0 0 0 661.333333 188.757333l19.413334-38.016zM279.765333 844.245333l24.490667-34.944A360.832 360.832 0 0 0 512 874.666667a360.917333 360.917333 0 0 0 216.32-71.552l25.472 34.261333A403.541333 403.541333 0 0 1 512 917.333333a403.498667 403.498667 0 0 1-232.234667-73.088zM170.666667 789.333333a106.666667 106.666667 0 1 1 0-213.333333 106.666667 106.666667 0 0 1 0 213.333333z m0-42.666666a64 64 0 1 0 0-128 64 64 0 0 0 0 128z m682.666666 42.666666a106.666667 106.666667 0 1 1 0-213.333333 106.666667 106.666667 0 0 1 0 213.333333z m0-42.666666a64 64 0 1 0 0-128 64 64 0 0 0 0 128z m-341.333333-512a106.666667 106.666667 0 1 1 0-213.333334 106.666667 106.666667 0 0 1 0 213.333334z m0-42.666667a64 64 0 1 0 0-128 64 64 0 0 0 0 128z" p-id="3882"></path></svg>