<?xml version="1.0" standalone="no"?><!DOCTYPE svg PUBLIC "-//W3C//DTD SVG 1.1//EN" "http://www.w3.org/Graphics/SVG/1.1/DTD/svg11.dtd"><svg t="1552538424905" class="icon" style="" viewBox="0 0 1024 1024" version="1.1" xmlns="http://www.w3.org/2000/svg" p-id="3669" xmlns:xlink="http://www.w3.org/1999/xlink" width="200" height="200"><defs><style type="text/css"></style></defs><path d="M381.27 566.79c-23.59 0-42.73 19.34-42.74 43.2v0.37c0 23.87 19.13 43.21 42.74 43.21h119.68a42.49 42.49 0 0 0 30.22-12.66 43.44 43.44 0 0 0 12.52-30.55V610a43.45 43.45 0 0 0-12.52-30.56 42.5 42.5 0 0 0-30.22-12.66H381.27z m0-159.23c-23.59 0-42.73 19.34-42.74 43.2v0.41c0 23.86 19.13 43.22 42.74 43.22h256.44a42.52 42.52 0 0 0 30.22-12.66 43.47 43.47 0 0 0 12.52-30.56v-0.41a43.47 43.47 0 0 0-12.52-30.56 42.51 42.51 0 0 0-30.22-12.66H381.27zM697.55 202.2h102.58c28.32 0 51.29 23.22 51.29 51.86v521.26a52.16 52.16 0 0 1-15 36.67 51 51 0 0 1-36.26 15.19h-581.3A51 51 0 0 1 182.59 812a52.17 52.17 0 0 1-15-36.67V254.06a52.15 52.15 0 0 1 15-36.67 51 51 0 0 1 36.27-15.19h102.58v-34.93c0-28.63 23-51.85 51.29-51.85S424 138.63 424 167.27v34.93h171v-34.93c0-28.63 23-51.85 51.29-51.85s51.29 23.22 51.29 51.85z" p-id="3670"></path></svg>