<?xml version="1.0" standalone="no"?><!DOCTYPE svg PUBLIC "-//W3C//DTD SVG 1.1//EN" "http://www.w3.org/Graphics/SVG/1.1/DTD/svg11.dtd"><svg t="1552545029595" class="icon" style="" viewBox="0 0 1024 1024" version="1.1" xmlns="http://www.w3.org/2000/svg" p-id="4607" xmlns:xlink="http://www.w3.org/1999/xlink" width="200" height="200"><defs><style type="text/css"></style></defs><path d="M971.167 1024zM513.92 187.054c-32.468 0-61.456-30.528-61.456-64.925 0-34.413 28.988-64.936 61.456-64.936 36.127 0 61.45 30.528 61.45 64.936 0.005 41.94-28.968 64.925-61.45 64.925z m169.688-99.318c-17.969 0-28.993-15.272-28.993-30.533C654.615 26.664 629.302 0 596.855 0H426.965c-32.463 0-57.776 26.66-57.776 57.203 0 19.125-14.494 30.533-28.993 30.533h-21.643c-17.97 0-28.993 15.262-28.993 30.528v91.59c0 19.131 14.494 30.53 28.993 30.53h383.028c17.974 0 28.983-15.273 28.983-30.53v-91.59c0-19.13-14.489-30.528-28.983-30.528h-17.974z m126.581 393.27L488.606 878.332c-7.15 11.398-28.982 7.728-39.807-3.864L231.97 687.41c-3.664-3.878-7.144-11.422 0-15.276l39.812-49.674c3.675-3.874 10.825-3.874 14.5 0l169.862 145.118c7.15 3.86 14.504 3.86 21.649-3.859l267.277-343.804c3.67-7.728 10.814-7.728 14.494-3.86l50.616 45.806c7.155 3.889 10.84 7.748 0.01 19.145z m0-324.48v133.73c0 19.131-14.489 30.529-28.983 30.529l-538.412 3.894c-17.97 0-28.988-15.272-28.988-30.538V160.395c0-19.13-14.494-30.533-28.988-30.533H166.85c-46.962-3.87-68.605 26.659-68.605 68.8v744.796c0 34.413 32.463 80.198 75.95 80.198h675.613c36.137 0 75.96-41.936 75.96-80.198v-748.86c0-34.407-25.324-68.8-65.131-68.8h-17.979c-17.964 0.2-32.458 11.607-32.468 30.728z m-430.588 639.52z" fill="" p-id="4608"></path></svg>