<?xml version="1.0" standalone="no"?><!DOCTYPE svg PUBLIC "-//W3C//DTD SVG 1.1//EN" "http://www.w3.org/Graphics/SVG/1.1/DTD/svg11.dtd"><svg t="1552538146015" class="icon" style="" viewBox="0 0 1024 1024" version="1.1" xmlns="http://www.w3.org/2000/svg" p-id="2686" xmlns:xlink="http://www.w3.org/1999/xlink" width="200" height="200"><defs><style type="text/css"></style></defs><path d="M512 1024C229.248 1024 0 794.752 0 512S229.248 0 512 0s512 229.248 512 512-229.248 512-512 512z m-42.666667-85.333333h85.333334v-85.333334h-85.333334v85.333334zM170.666667 469.333333H85.333333v85.333334h85.333334v-85.333334z m512 0h-128V170.666667a42.666667 42.666667 0 0 0-85.333334 0v341.333333a42.666667 42.666667 0 0 0 42.666667 42.666667 41.685333 41.685333 0 0 0 21.333333-6.528 41.685333 41.685333 0 0 0 21.333334 6.528h128a42.666667 42.666667 0 0 0 0-85.333334z m170.666666 0v85.333334h85.333334v-85.333334h-85.333334z" p-id="2687"></path></svg>